<svg xmlns="http://www.w3.org/2000/svg" viewBox="0 0 1200 760"><defs><linearGradient id="a" x1="0" y1="0" x2="1" y2="1"><stop stop-color="#071f36"/><stop offset="1" stop-color="#1478b8"/></linearGradient></defs><rect width="1200" height="760" fill="#eaf0f5"/><rect y="560" width="1200" height="200" fill="#d5dee6"/><g opacity=".9"><rect x="65" y="280" width="210" height="280" fill="#8ea3b4"/><rect x="300" y="190" width="250" height="370" fill="#738a9d"/><rect x="575" y="250" width="180" height="310" fill="#92a7b7"/><rect x="785" y="120" width="350" height="440" fill="#607a8f"/></g><g fill="#dce8ef"><path d="M100 330h140v28H100zM100 385h140v28H100zM100 440h140v28H100z"/><path d="M345 240h160v30H345zM345 300h160v30H345zM345 360h160v30H345zM345 420h160v30H345z"/><path d="M820 175h270v32H820zM820 240h270v32H820zM820 305h270v32H820zM820 370h270v32H820z"/></g><g transform="translate(440 450)"><rect width="380" height="150" rx="18" fill="url(#a)"/><rect x="25" y="25" width="95" height="100" rx="10" fill="#123e60"/><g stroke="#6c91ad" stroke-width="8"><path d="M42 45h62M42 68h62M42 91h62"/></g><rect x="145" y="24" width="155" height="102" rx="10" fill="#0e3654"/><rect x="315" y="34" width="42" height="75" rx="7" fill="#f6ad1b"/></g></svg>
