<svg xmlns="http://www.w3.org/2000/svg" viewBox="0 0 1200 760"><rect width="1200" height="760" fill="#eef4f8"/><path d="M0 565c180-55 335 58 515 3s340-63 685 3v189H0z" fill="#1478b8" opacity=".25"/><path d="M0 620c210-62 380 52 580 0s380-55 620 5v135H0z" fill="#0b2d4b" opacity=".35"/><g transform="translate(205 150)"><rect x="0" y="420" width="790" height="45" rx="10" fill="#071f36"/><rect x="60" y="145" width="230" height="260" rx="20" fill="#dce5ec" stroke="#8194a3" stroke-width="7"/><circle cx="175" cy="275" r="72" fill="#c8d3dc" stroke="#728594" stroke-width="11"/><circle cx="175" cy="275" r="18" fill="#071f36"/><rect x="335" y="125" width="360" height="280" rx="26" fill="#0b2d4b"/><rect x="375" y="170" width="130" height="190" rx="12" fill="#143d5d"/><g fill="#dce6ee"><rect x="535" y="178" width="115" height="30" rx="8"/><rect x="535" y="230" width="115" height="30" rx="8"/><rect x="535" y="282" width="85" height="30" rx="8"/></g><rect x="700" y="190" width="65" height="125" rx="10" fill="#f6ad1b"/><path d="M410 125V55h95v70" fill="none" stroke="#071f36" stroke-width="17"/><circle cx="155" cy="485" r="30" fill="#071f36"/><circle cx="640" cy="485" r="30" fill="#071f36"/></g></svg>
