<svg xmlns="http://www.w3.org/2000/svg" viewBox="0 0 1200 760"><defs><linearGradient id="a" x1="0" y1="0" x2="1" y2="1"><stop stop-color="#e8edf2"/><stop offset="1" stop-color="#bfcbd6"/></linearGradient><linearGradient id="b" x1="0" y1="0" x2="1"><stop stop-color="#0b2d4b"/><stop offset="1" stop-color="#1478b8"/></linearGradient></defs><rect width="1200" height="760" fill="#f5f7fa"/><ellipse cx="610" cy="640" rx="430" ry="48" fill="#071f36" opacity=".14"/><g transform="translate(150 150)"><rect x="30" y="405" width="870" height="55" rx="12" fill="#071f36"/><rect x="70" y="130" width="215" height="270" rx="20" fill="url(#a)" stroke="#8ea0af" stroke-width="8"/><circle cx="178" cy="265" r="76" fill="#d6dee5" stroke="#778895" stroke-width="13"/><circle cx="178" cy="265" r="20" fill="#071f36"/><g stroke="#8999a5" stroke-width="8"><path d="M178 190v150M103 265h150M125 212l106 106M231 212L125 318"/></g><rect x="315" y="115" width="470" height="290" rx="25" fill="url(#b)"/><rect x="350" y="150" width="130" height="220" rx="12" fill="#132f46"/><g fill="#dce6ee"><rect x="510" y="155" width="220" height="40" rx="9"/><rect x="510" y="220" width="220" height="40" rx="9"/><rect x="510" y="285" width="160" height="40" rx="9"/></g><rect x="800" y="165" width="90" height="155" rx="12" fill="#f6ad1b"/><rect x="825" y="195" width="40" height="40" rx="5" fill="#071f36"/><path d="M395 115v-68h110v68" fill="none" stroke="#071f36" stroke-width="18"/><circle cx="190" cy="470" r="36" fill="#071f36"/><circle cx="760" cy="470" r="36" fill="#071f36"/></g></svg>
