<svg xmlns="http://www.w3.org/2000/svg" viewBox="0 0 1200 760"><defs><linearGradient id="a" x1="0" y1="0" x2="1" y2="1"><stop stop-color="#1478b8"/><stop offset="1" stop-color="#071f36"/></linearGradient></defs><rect width="1200" height="760" fill="#f5f7fa"/><ellipse cx="600" cy="650" rx="430" ry="45" fill="#071f36" opacity=".15"/><g transform="translate(150 160)"><rect x="0" y="120" width="900" height="350" rx="28" fill="url(#a)"/><rect x="35" y="155" width="245" height="275" rx="16" fill="#0b2d4b" stroke="#4e7795" stroke-width="4"/><g stroke="#6d91ad" stroke-width="11"><path d="M70 190h175M70 225h175M70 260h175M70 295h175M70 330h175M70 365h175"/></g><rect x="315" y="155" width="335" height="275" rx="16" fill="#123a5b"/><rect x="675" y="155" width="190" height="275" rx="16" fill="#102f49"/><rect x="725" y="205" width="90" height="74" rx="10" fill="#f6ad1b"/><circle cx="755" cy="242" r="10" fill="#071f36"/><circle cx="788" cy="242" r="10" fill="#071f36"/><g fill="#f5f7fa"><rect x="345" y="195" width="270" height="16" rx="8" opacity=".7"/><rect x="345" y="235" width="270" height="16" rx="8" opacity=".7"/><rect x="345" y="275" width="270" height="16" rx="8" opacity=".7"/></g><rect x="20" y="470" width="860" height="38" rx="10" fill="#071f36"/><circle cx="120" cy="520" r="34" fill="#071f36"/><circle cx="780" cy="520" r="34" fill="#071f36"/></g></svg>
